<svg width="53" height="45" viewBox="0 0 53 45" xmlns="http://www.w3.org/2000/svg"><title>6E25C0C7-E3E8-4479-8EC5-DEBC2E4F0B8C</title><path d="M26.053 0c-1.4 0-2.69.722-3.405 1.924L.537 39.171a3.818 3.818 0 0 0 0 3.905A3.96 3.96 0 0 0 3.96 45h44.186a3.956 3.956 0 0 0 3.423-1.924 3.818 3.818 0 0 0 0-3.905L29.457 1.924A3.944 3.944 0 0 0 26.053 0zm0 2.368c.53 0 1.117.335 1.37.759l22.11 37.247c.252.425.253 1.056 0 1.48-.252.425-.856.779-1.387.778H3.96c-.531 0-1.135-.353-1.388-.778-.252-.424-.252-1.055 0-1.48L24.684 3.127c.252-.424.838-.759 1.369-.759zm0 10.658a2.96 2.96 0 0 0-2.96 2.96l.591 10.659a2.368 2.368 0 1 0 4.737 0l.592-10.658a2.96 2.96 0 0 0-2.96-2.96zm0 17.763a2.96 2.96 0 1 0 0 5.922 2.96 2.96 0 0 0 0-5.922z" fill-rule="nonzero" fill="#C4C4C4"/></svg>