<svg width="22" height="19" viewBox="0 0 22 19" xmlns="http://www.w3.org/2000/svg"><title>51EA4B1D-3C42-484A-83B6-2CFF89FDFA41</title><path d="M11 0c.591 0 1.136.305 1.437.812l9.336 15.727c.302.509.303 1.14 0 1.648a1.67 1.67 0 0 1-1.445.813H1.672a1.672 1.672 0 0 1-1.445-.813 1.612 1.612 0 0 1 0-1.648L9.563.812A1.665 1.665 0 0 1 11 0zm0 13a1.25 1.25 0 1 0 0 2.5 1.25 1.25 0 0 0 0-2.5zm0-7.5c-.69 0-1.25.56-1.25 1.25l.25 4.5a1 1 0 1 0 2 0l.25-4.5c0-.69-.56-1.25-1.25-1.25z" fill-rule="nonzero" fill="#C33" opacity=".291"/></svg>