<svg width="40" height="40" viewBox="0 0 40 40" xmlns="http://www.w3.org/2000/svg" xmlns:xlink="http://www.w3.org/1999/xlink"><title>B5BE1233-21EF-4819-888C-9C3E099ED56E</title><defs><rect id="a" width="40" height="40" rx="3"/><mask id="b" x="0" y="0" width="40" height="40" fill="#fff"><use xlink:href="#a"/></mask></defs><g fill="none" fill-rule="evenodd" opacity=".8"><path d="M21.57 22.434l1.842 1.842-4.668 4.67c-1.656 1.655-4.52 1.113-6.502-.87-1.974-1.973-2.523-4.847-.874-6.496l4.674-4.674 1.843 1.843-4.674 4.674c-.419.418-.173 1.705.903 2.781 1.084 1.085 2.36 1.326 2.787.899l4.669-4.67zm3.719-.034l-1.843-1.842 4.669-4.67c.427-.426.186-1.702-.899-2.786-1.076-1.076-2.363-1.322-2.781-.903l-4.674 4.674-1.843-1.843 4.674-4.674c1.65-1.65 4.523-1.1 6.497.874 1.982 1.983 2.524 4.846.868 6.502L25.29 22.4zm-3.662-5.55a1.304 1.304 0 1 1 1.842 1.842l-3.761 3.762a1.304 1.304 0 1 1-1.843-1.843l3.762-3.762z" stroke="#FFF" stroke-width=".7" fill="#999" fill-rule="nonzero"/><use stroke="#999" mask="url(#b)" stroke-width="2" xlink:href="#a"/></g></svg>