<svg width="40" height="40" viewBox="0 0 40 40" xmlns="http://www.w3.org/2000/svg" xmlns:xlink="http://www.w3.org/1999/xlink"><title>C2D2265F-A4A0-48F2-AB14-BEEACC0A884D</title><defs><rect id="a" width="40" height="40" rx="3"/><mask id="b" x="0" y="0" width="40" height="40" fill="#fff"><use xlink:href="#a"/></mask></defs><g fill="none" fill-rule="evenodd" opacity=".8"><path d="M10.498 12.636a1.03 1.03 0 0 0-1.015 1.016v12.696c0 .55.466 1.016 1.015 1.016h20.314a1.03 1.03 0 0 0 1.016-1.016V13.652a1.03 1.03 0 0 0-1.016-1.016H10.498zm.66 1.524h18.995l-9.498 7.411-9.498-7.411zm-.152 1.81l9.181 7.164a.762.762 0 0 0 .936 0l9.181-7.165v9.871H11.006v-9.87z" fill="#F0AE00" fill-rule="nonzero"/><use stroke="#F1AF00" mask="url(#b)" stroke-width="2" xlink:href="#a"/></g></svg>