<svg width="40" height="40" viewBox="0 0 40 40" xmlns="http://www.w3.org/2000/svg" xmlns:xlink="http://www.w3.org/1999/xlink"><title>ABD06E04-1B0B-482C-BFB5-63D6A83A04A8</title><defs><rect id="a" width="40" height="40" rx="3"/><mask id="b" x="0" y="0" width="40" height="40" fill="#fff"><use xlink:href="#a"/></mask></defs><g fill="none" fill-rule="evenodd" opacity=".8"><use stroke="#60B5F0" mask="url(#b)" stroke-width="2" xlink:href="#a"/><path d="M32 13.116c-.81.36-1.68.602-2.592.711a4.527 4.527 0 0 0 1.984-2.497 9.036 9.036 0 0 1-2.866 1.095 4.514 4.514 0 0 0-7.691 4.117 12.814 12.814 0 0 1-9.303-4.716 4.492 4.492 0 0 0-.611 2.27c0 1.565.796 2.947 2.007 3.756a4.495 4.495 0 0 1-2.044-.564v.056a4.516 4.516 0 0 0 3.62 4.426 4.522 4.522 0 0 1-2.038.077 4.518 4.518 0 0 0 4.216 3.135 9.055 9.055 0 0 1-5.605 1.932c-.365 0-.724-.021-1.077-.063a12.774 12.774 0 0 0 6.919 2.028c8.302 0 12.842-6.878 12.842-12.842 0-.196-.005-.39-.013-.584A9.17 9.17 0 0 0 32 13.116z" fill="#60B5F0" fill-rule="nonzero"/></g></svg>