<svg width="40" height="40" viewBox="0 0 40 40" xmlns="http://www.w3.org/2000/svg" xmlns:xlink="http://www.w3.org/1999/xlink"><title>9A81A707-1021-4660-AE40-35EF52076CB5</title><defs><rect id="a" width="40" height="40" rx="3"/><mask id="b" x="0" y="0" width="40" height="40" fill="#fff"><use xlink:href="#a"/></mask></defs><g fill="none" fill-rule="evenodd" opacity=".8"><use stroke="#65BC54" mask="url(#b)" stroke-width="2" xlink:href="#a"/><path d="M33 19.178c0 6.726-5.495 12.178-12.273 12.178-2.152 0-4.173-.55-5.932-1.515L8 32l2.215-6.534a12.053 12.053 0 0 1-1.76-6.288C8.454 12.452 13.948 7 20.726 7 27.505 7 33 12.452 33 19.178zM20.727 8.94c-5.69 0-10.318 4.594-10.318 10.24 0 2.24.73 4.314 1.965 6.002l-1.289 3.802 3.966-1.26a10.313 10.313 0 0 0 5.676 1.693c5.69 0 10.319-4.592 10.319-10.238 0-5.645-4.63-10.239-10.319-10.239zm6.197 13.044c-.075-.125-.276-.2-.576-.349-.301-.149-1.78-.871-2.056-.97-.276-.1-.477-.15-.677.149-.2.299-.777.97-.953 1.17-.176.2-.35.224-.652.075-.3-.15-1.27-.465-2.419-1.482-.894-.79-1.498-1.768-1.674-2.067-.175-.298-.018-.46.132-.608.136-.135.301-.35.452-.523.15-.175.2-.3.3-.498.101-.2.05-.374-.025-.523-.075-.15-.677-1.619-.927-2.216-.251-.597-.501-.498-.677-.498-.176 0-.376-.025-.577-.025-.2 0-.526.075-.802.373-.276.3-1.053 1.021-1.053 2.49 0 1.47 1.078 2.888 1.229 3.087.15.199 2.08 3.311 5.138 4.507 3.06 1.194 3.06.796 3.611.746.551-.05 1.78-.722 2.03-1.42.251-.696.251-1.294.176-1.418z" fill="#65BC54"/></g></svg>