<?xml version="1.0" standalone="no"?>
<!DOCTYPE svg PUBLIC "-//W3C//DTD SVG 1.1//EN" "http://www.w3.org/Graphics/SVG/1.1/DTD/svg11.dtd" >
<svg xmlns="http://www.w3.org/2000/svg">
<metadata></metadata>
<defs>
<font id="skyfontthickregular" horiz-adv-x="1265" >
<font-face units-per-em="2048" ascent="1638" descent="-410" />
<missing-glyph horiz-adv-x="1024" />
<glyph horiz-adv-x="0" />
<glyph unicode="&#xd;" horiz-adv-x="1024" />
<glyph unicode=" "  horiz-adv-x="1024" />
<glyph unicode="&#x09;" horiz-adv-x="1024" />
<glyph unicode="&#xa0;" horiz-adv-x="1024" />
<glyph unicode="!" horiz-adv-x="493" d="M68 174q0 180 178 180q180 0 180 -180q0 -188 -180 -188q-178 0 -178 188zM78 1524q-2 72 65 71h213q64 1 62 -71l-17 -1000q0 -61 -65 -61h-172q-59 0 -62 61z" />
<glyph unicode="&#x22;" horiz-adv-x="632" />
<glyph unicode="#" horiz-adv-x="632" />
<glyph unicode="$" />
<glyph unicode="%" horiz-adv-x="1484" d="M63 242q0 35 33 67l459 459q31 31 68 31t147 -101h-293q111 100 148 101q37 0 67 -31l455 -459q33 -32 33 -69q0 -35 -37 -72l-2 -481q0 -96 -97 -97h-309q-96 0 -96 97v217h-31v-217q0 -96 -100 -97h-307q-96 0 -97 97v479q-41 37 -41 76zM299 -215h113v217q0 96 96 96 h227q96 0 96 -96v-217h113v451l-321 323l-324 -323v-451zM616 1120q0 92 93 92q92 0 92 -92q0 -82 57 -138t139 -56q90 0 90 -90q0 -92 -90 -93q-162 0 -271.5 109t-109.5 268zM877 1112q0 109 108 109q111 0 111 -109t-111 -108q-109 0 -108 108zM1065 1300q0 109 109 109 q110 0 110 -109q0 -111 -110 -110q-109 0 -109 110zM1255 1489q0 109 109 108q109 1 109 -108q0 -111 -109 -111t-109 111z" />
<glyph unicode="&#x26;" horiz-adv-x="3862" d="M55 1243q0 100 99 100q100 0 100 -100q0 -102 -100 -102q-98 0 -99 102zM219 1079q0 98 100 99q99 -1 99 -99q0 -100 -99 -100q-100 0 -100 100zM311 164q0 35 27 61l397 396q29 29 60 28h2q33 0 61 -28l397 -396q27 -26 27 -61q0 -45 -33 -70v-413q0 -88 -88 -89h-266 q-88 0 -88 89v182h-16v-182q0 -88 -93 -89h-266q-88 0 -88 89v413q-33 25 -33 70zM381 918q0 100 98 100q103 0 103 -100q0 -102 -103 -103q-98 0 -98 103zM389 676q0 84 84 84q70 0 118 48t48 118q0 84 84 84t84 -84q0 -139 -97.5 -237.5t-236.5 -98.5q-84 0 -84 86z M520 154v-383h90v184q0 88 88 88h197q88 0 88 -88v-184h90v383l-276 276zM1442 162q0 33 31 63q57 57 342 344l51 52q31 31 63 30q33 0 133 -100h-266q96 96 135 96q35 0 62 -26l397 -396q27 -26 27 -61q0 -45 -33 -70v-413q0 -88 -88 -89h-266q-92 0 -93 89v182h-16v-182 q0 -88 -88 -89h-266q-88 0 -88 89v411q-37 35 -37 70zM1655 154v-383h90v184q0 88 88 88h197q88 0 88 -88v-184h86v383l-273 276zM1669 868q0 35 25.5 61.5t60.5 26.5q33 0 60 -28q47 -49 116 -49q41 0 100.5 38.5t79.5 38.5q31 0 57.5 -28.5t26.5 -59.5t-28 -59 q-100 -98 -236 -98q-141 0 -235 98q-27 27 -27 59zM1825 1034q0 39 32.5 71t71.5 32t72 -33t33 -72t-34 -70.5t-71 -31.5q-39 0 -71.5 32.5t-32.5 71.5zM1831 1262q0 104 98 104q41 0 71 -31.5t30 -72.5q0 -39 -31 -71t-70 -32t-68.5 32t-29.5 71zM1831 1493q0 104 98 104 q41 0 71 -31.5t30 -72.5q0 -39 -31 -70.5t-70 -31.5t-68.5 31.5t-29.5 70.5zM2576 164q0 33 29 61l326 326q18 20 59 60t74 40q18 0 32.5 -7t30.5 -23l398 -396q26 -26 26 -61q0 -45 -33 -70v-413q0 -88 -88 -89h-268q-90 0 -90 89v182h-16v-182q0 -88 -88 -89h-267 q-92 0 -92 89v413h-2q-31 35 -31 70zM2789 154v-383h86l4 184q2 88 89 88h194q90 0 90 -88v-184h86v383l-272 276zM3056 926q0 84 84 84t84 -84q0 -72 47 -119t118 -47q84 0 84 -84q0 -86 -84 -86q-143 0 -238 96t-95 240zM3281 918q0 100 98 100q103 0 103 -100 q0 -102 -103 -103q-98 0 -98 103zM3445 1079q0 98 98 99q100 -1 100 -99q0 -100 -100 -100q-98 0 -98 100zM3609 1243q0 100 98 100q100 0 100 -100q0 -102 -100 -102q-98 0 -98 102z" />
<glyph unicode="'" horiz-adv-x="632" />
<glyph unicode="(" horiz-adv-x="4589" d="M27 1092q0 225 168 360q158 125 387 125h804q72 0 72 -76v-145q0 -168 -168 -168h-690q-104 0 -104 -62q0 -72 112 -96l465 -98q428 -90 428 -465q0 -467 -598 -467h-772q-70 0 -70 70v161q0 154 158 154h719q121 0 121 66t-129 92l-461 98q-442 94 -442 451zM1581 49 v1364q0 164 158 164h235q37 0 56 -53v-1366q0 -158 -158 -158h-236q-41 0 -55 49zM1935 850q383 391 627 651q51 76 145 76h396q119 0 174 -78l401 -571l6 18q25 0 125 150q123 184 293 442q31 63 94 64h295q72 -1 72 -54q0 -27 -33 -57l-624 -948v-385q0 -158 -162 -158 h-250q-55 0 -55 55v502l-517 752l-438 -471l494 -738q18 -20 18 -51q-14 -49 -69 -49h-322q-68 0 -108 61q-496 743 -562 789z" />
<glyph unicode=")" horiz-adv-x="4442" d="M37 1081q0 244 174 385q162 129 412 129h753q131 0 131 -137v-139q0 -221 -221 -221h-645q-8 0 -20.5 6t-12.5 4q0 -6 58 -18l432 -97q465 -104 465 -510q0 -252 -197 -385q-170 -113 -434 -112h-737q-133 0 -134 137v141q0 221 226 221h669q2 0 19.5 -6t17.5 -4 q0 10 -59 23l-432 96q-465 104 -465 487zM186 1081q0 -268 344 -342l435 -94q174 -37 174 -170q0 -137 -183 -137h-669q-76 0 -76 -74v-129h721q201 0 325 72q158 90 158 276q0 289 -348 365l-434 94q-174 37 -174 166q0 137 182 137h645q74 0 74 74v127h-737 q-188 0 -306 -86q-131 -96 -131 -279zM1503 109v1271q0 213 213 213h221q125 0 125 -123v-358l371 404q74 80 188 79h373q166 0 236 -102l309 -461l321 479q57 84 148 84h270q53 0 91 -37t38 -90q0 -35 -16 -67l-4 -6l-572 -852v-342q0 -215 -215 -215h-229q-125 0 -125 123 l-2 440l-424 622l-319 -344l434 -639q29 -43 28 -84q0 -119 -135 -118h-303q-90 0 -151 90l-312 454v-329q0 -213 -213 -213h-221q-125 0 -125 121zM1651 135v1245q0 63 65 64h221q0 27 -24 26v-1269q0 -66 -64 -66h-198zM2021 852l478 -694q16 -23 26 -23h264l-477 707 l524 567l555 -817v-457h209q66 0 66 66v387l594 880q18 1 18 -22h-270q-12 0 -23 -16l-446 -664l-434 647q-23 33 -111 33h-373q-47 0 -77 -33z" />
<glyph unicode="*" horiz-adv-x="1773" d="M33 983h653l199 614l200 -614h654l-527 -383l201 -610l-528 377l-533 -377l207 610z" />
<glyph unicode="+" horiz-adv-x="1191" d="M27 504v153q0 66 71 66h348v344q0 74 66 74h174q70 0 70 -74v-344h348q66 0 65 -66v-153q0 -66 -65 -66h-348v-364q0 -74 -70 -74h-174q-66 0 -66 74v364h-348q-72 0 -71 66z" />
<glyph unicode="," horiz-adv-x="632" />
<glyph unicode="." horiz-adv-x="507" d="M76 174q0 180 178 180q180 0 180 -180q0 -188 -180 -188q-178 0 -178 188z" />
<glyph unicode="/" horiz-adv-x="2068" d="M39 475q0 70 48 118t118 48t118 -48t48 -118q0 -236 157.5 -393.5t393.5 -157.5q70 0 117.5 -48t47.5 -118t-48 -118t-117 -48q-373 0 -628 255t-255 628zM686 449q0 90 59.5 150t149.5 60q88 0 149.5 -61t61.5 -149q0 -90 -60.5 -149.5t-150.5 -59.5q-88 0 -148.5 60 t-60.5 149zM1155 918q0 90 59.5 150t149.5 60q88 0 149.5 -61t61.5 -149q0 -90 -60.5 -149.5t-150.5 -59.5q-88 0 -148.5 60t-60.5 149zM1624 1386q0 90 59.5 150.5t149.5 60.5q88 0 149.5 -61.5t61.5 -149.5q0 -90 -60.5 -149t-150.5 -59q-88 0 -148.5 60t-60.5 148z" />
<glyph unicode="0" horiz-adv-x="1259" d="M68 709q0 336 106 501q133 207 451 207q330 0 460 -200q105 -160 105 -508q0 -387 -129 -555q-88 -115 -189 -148q-63 -20 -239 -20q-332 0 -463 204q-102 162 -102 519zM379 709q0 -225 27 -303q49 -143 227 -144q176 0 223 146q23 70 23 301q0 223 -25 292 q-49 139 -221 140q-164 0 -205 -70q-49 -82 -49 -362z" />
<glyph unicode="1" horiz-adv-x="1040" d="M178 1133q0 51 76 94l287 164q35 20 73 20h113q53 0 93 -45t40 -98v-1151q0 -63 -29.5 -90t-119.5 -27q-76 0 -107 20q-43 27 -43 97v944q-25 -16 -100 -62q-94 -57 -135 -57q-51 0 -101 72q-47 66 -47 119z" />
<glyph unicode="2" horiz-adv-x="1185" d="M104 76v74q0 84 48 133l374 395q129 135 160 184q41 63 41 148q0 96 -51 123q-31 16 -144 16q-88 0 -288 -29l-15 -2q-4 0 -12 -2l-16 -4l2 6q-41 8 -49 64v88q0 104 108 123q160 27 309 26q469 0 469 -395q0 -154 -75 -274q-51 -82 -242 -279l-188 -195h479q68 0 67 -67 v-82q0 -127 -123 -127h-778q-76 0 -76 76z" />
<glyph unicode="3" horiz-adv-x="1150" d="M123 129q0 59 22 121q29 80 78 80q18 0 39 -4q207 -43 309 -43q180 0 181 118q0 90 -37 123q-33 27 -125 27h-164q-115 0 -115 151q0 74 21 107q27 41 94 41h147q14 -2 5 -2q96 4 131 29q43 33 43 124q0 119 -181 119q-100 0 -309 -43q-20 -4 -39 -4q-49 0 -78 80 q-23 61 -22 121q0 72 86 100q27 6 147 23q143 20 217 20q201 0 324 -106q131 -113 131 -310q0 -195 -80 -299q80 -106 80 -301q0 -205 -127 -313q-119 -102 -328 -102q-74 0 -217 20q-121 16 -147 23q-86 29 -86 100z" />
<glyph unicode="4" horiz-adv-x="1255" d="M70 492q0 35 20 69l463 772q45 74 127 74h147q57 0 103.5 -46t46.5 -104v-669h92q70 0 96 -41q21 -33 21 -107q0 -80 -19 -110q-25 -41 -98 -41h-92v-183q0 -78 -57 -102q-20 -4 -93 -4q-76 0 -106 16q-43 25 -43 95v178l-463 -2q-100 0 -129 59q-14 31 -16 146zM453 545 h225v377z" />
<glyph unicode="5" horiz-adv-x="1175" d="M111 168q0 53 36 123q41 80 89 80q16 0 57 -15q207 -74 295 -73q82 0 130 52t48 134q0 100 -23 145q-33 66 -122 66q-45 0 -132.5 -14.5t-132.5 -14.5q-193 0 -192 127q0 12 2 25l80 479q8 49 53 87t94 38h514q72 0 99 -43q18 -31 18 -109q0 -76 -20 -108 q-27 -39 -99 -39h-387l-24 -143q193 14 249 2q322 -70 322 -498q0 -207 -136 -345t-341 -138q-137 0 -398 92q-80 29 -79 90z" />
<glyph unicode="6" horiz-adv-x="1196" d="M100 647q0 305 105 508q135 264 413 264q174 0 334 -47q90 -27 90 -102q0 -59 -28 -117q-35 -70 -88 -70q-20 0 -56 11q-115 35 -252 34q-238 0 -237 -481q0 -375 248 -373q184 2 184 168q0 150 -127 150q-68 0 -141 -29q-43 -16 -62 -16q-51 0 -88 69q-33 59 -33 117 q0 80 132 121q92 29 192 29q188 0 299 -124t111 -317q0 -211 -125 -332.5t-338 -123.5q-274 -4 -414 200q-119 174 -119 461z" />
<glyph unicode="7" horiz-adv-x="1196" d="M100 1262q0 82 28 116.5t105 34.5h723q57 0 98.5 -38t41.5 -95q0 -29 -17 -66l-508 -1134q-25 -57 -69 -72q-25 -8 -105 -8q-152 0 -151 84q0 16 10 39l444 989h-473q-74 0 -100.5 37t-26.5 113z" />
<glyph unicode="8" horiz-adv-x="1189" d="M102 430q0 186 144 313q-121 113 -121 275q0 176 141 291q131 109 312 108q182 0 313 -106q141 -113 141 -293q0 -152 -108 -258q163 -129 163 -330q0 -195 -151 -321q-143 -123 -340 -123q-201 0 -342 120q-152 127 -152 324zM377 426q0 -76 74 -123q63 -41 145 -41 q80 0 143 41q72 47 72 123q0 78 -72 125q-61 41 -143 41t-145 -41q-74 -47 -74 -125zM403 1018q0 -59 62 -94q49 -29 115 -29q63 0 114 29q62 35 62 94t-62 92q-51 29 -114 29t-115 -29q-61 -33 -62 -92z" />
<glyph unicode="9" horiz-adv-x="1196" d="M100 963q0 211 125 332.5t338 123.5q274 4 414 -200q119 -174 119 -461q0 -303 -107 -510q-135 -262 -411 -262q-174 0 -334 47q-90 27 -90 102q0 66 26 119q33 68 90 68q20 0 56 -11q115 -35 252 -35q238 0 237 482q0 375 -248 372q-184 -2 -184 -167q0 -150 127 -150 q68 0 141 29q43 16 62 16q51 0 88 -70q33 -59 33 -116q0 -80 -132 -121q-92 -29 -192 -29q-188 0 -301 127q-109 121 -109 314z" />
<glyph unicode=":" horiz-adv-x="477" d="M59 174q0 180 179 180q180 0 180 -180q0 -188 -180 -188q-178 0 -179 188zM59 956q0 180 179 181q180 -1 180 -181q0 -188 -180 -188q-178 0 -179 188z" />
<glyph unicode=";" horiz-adv-x="632" />
<glyph unicode="&#x3c;" horiz-adv-x="1896" d="M61 127q0 66 43 109l392 385q47 47 106 47q63 0 108.5 -44t45.5 -108q0 -66 -68 -135q-35 -35 -106 -102h233q63 0 107.5 -44.5t44.5 -107.5q0 -61 -45 -106.5t-107 -45.5h-235q37 -33 106.5 -102.5t69.5 -134.5q0 -63 -45 -107.5t-109 -44.5q-63 0 -106 43l-392 394 q-43 43 -43 104zM70 1053q0 72 50 122t122 50t123 -50t51 -122q0 -74 -50.5 -125t-123.5 -51q-74 0 -123 51t-49 125zM496 1053q0 72 50 122t122 50t123 -50t51 -122q0 -74 -50.5 -125t-123.5 -51q-74 0 -123 51t-49 125zM911 1053q0 61 45 106t107 45h235 q-37 33 -105.5 101.5t-68.5 136.5q0 63 45 107t109 44q61 0 106 -45l390 -391q45 -45 45 -104q0 -63 -45 -109l-390 -385q-47 -47 -106 -47q-63 0 -108.5 44t-45.5 108q0 68 66 135q18 18 108 102h-235q-63 0 -107.5 44t-44.5 108zM1036 127q0 72 51.5 124t122.5 52 q72 0 123 -52t51 -124t-51 -122t-123 -50t-123 50t-51 122zM1462 127q0 72 51.5 124t122.5 52q72 0 123 -52t51 -124t-51 -122t-123 -50t-123 50t-51 122z" />
<glyph unicode="=" horiz-adv-x="1245" d="M55 258v154q0 70 70 69h1008q66 0 65 -69v-154q0 -70 -65 -70h-1008q-70 0 -70 70zM55 692v154q0 70 70 69h1008q66 0 65 -69v-154q0 -70 -65 -69h-1008q-70 0 -70 69z" />
<glyph unicode="&#x3e;" horiz-adv-x="2332" d="M57 -174q0 98 70 168l598 598l-598 596q-70 70 -70 168q0 100 68 167.5t168 67.5q98 0 168 -69l764 -766q69 -70 69 -164q0 -96 -69 -166l-764 -766q-70 -70 -166 -70q-100 0 -169 68t-69 168zM1022 -174q0 98 70 168l598 598l-598 596q-70 70 -70 168q0 100 67.5 167.5 t167.5 67.5q96 0 166 -69l766 -766q70 -70 70 -164q0 -96 -70 -166l-764 -766q-70 -70 -168 -70t-166.5 69t-68.5 167z" />
<glyph unicode="?" horiz-adv-x="632" />
<glyph unicode="@" horiz-adv-x="1671" d="M59 801q0 309 211 530t521 221q143 0 288 -75q170 -88 455 -332q-299 147 -453 201q-125 43 -217 43q-295 0 -467 -254q-115 -168 -114 -353q0 -207 137 -349t344 -142q176 0 295 112.5t119 286.5q0 137 -92.5 233.5t-227.5 96.5q-20 0 -39 -2l-12 82q49 10 98 10 q199 0 332 -154q125 -145 125 -348q0 -176 -109 -313q-176 -223 -489 -223q-301 0 -503 214t-202 515zM145 332q299 -141 449 -193q123 -41 213 -41q289 0 463 242q121 168 121 365q0 207 -137.5 350t-342.5 143q-180 0 -297.5 -114.5t-117.5 -292.5q0 -137 91 -231.5 t226 -94.5q20 0 41 2l12 -82q-49 -10 -102 -10q-141 0 -260 92q-195 152 -195 410q0 236 185 389q172 147 411 147q301 0 505 -214t204 -515q0 -307 -212 -528.5t-517 -221.5q-141 0 -285 74q-168 86 -455 324z" />
<glyph unicode="A" horiz-adv-x="1777" d="M92 10q0 12 10 39l582 1469q23 59 102 59h240q61 0 72 -4q18 -8 39 -60l579 -1464q8 -21 8 -33q0 -16 -14 -16h-293q-35 0 -45 29l-106 272l-703 2q-8 0 -12 -8l-107 -266q-12 -29 -47 -29h-280q-25 0 -25 10zM684 623h449l-226 548z" />
<glyph unicode="B" horiz-adv-x="1411" d="M104 68v1448q0 63 48 63h477q309 0 456 -76q207 -106 207 -377q0 -231 -231 -307q276 -74 276 -338q0 -291 -207 -401q-150 -80 -477 -80h-499q-49 0 -50 68zM479 911l187 -2q233 21 233 181q0 78 -59.5 126t-139.5 48h-219zM492 334h231q84 0 145.5 51t61.5 133 q0 96 -78 146q-66 41 -168 41h-192v-371z" />
<glyph unicode="C" horiz-adv-x="1437" d="M72 805q8 790 741 790h2q115 0 270 -28q180 -33 254 -86q25 -23 25 -47v-152q0 -98 -64 -98q-20 0 -53 6q-317 98 -430 102h-18q-167 0 -258 -106q-57 -96 -76 -182q-12 -57 -12 -193q0 -510 362 -510q180 0 432 94q27 10 51 11q66 0 66 -101v-155q0 -20 -16 -35 q-78 -66 -250 -101q-132 -28 -264 -28h-9q-205 0 -307 26q-158 41 -248 170v2q-198 240 -198 603v18z" />
<glyph unicode="D" horiz-adv-x="1533" d="M104 37v1503q0 37 29 37h619q690 0 690 -774q0 -397 -162 -592q-176 -211 -567 -211h-580q-29 4 -29 37zM477 303q121 2 275 2q186 18 262 172q55 115 55 326q0 467 -317 467h-52q-68 0 -67 0q-12 0 -19 -2h-137v-412q-1 0 -1 -0.5t1 -1.5v-551z" />
<glyph unicode="E" horiz-adv-x="1277" d="M57 39v1415q0 125 107 125h1048q23 0 23 -31v-205q0 -59 -17.5 -71t-80.5 -12h-727v-312h651q45 0 45 -43v-241q0 -31 -31 -31h-665v-307h733q63 0 80 -31q10 -18 10 -90v-166q0 -39 -27 -39h-1112q-37 0 -37 39z" />
<glyph unicode="F" horiz-adv-x="1198" d="M41 14v1440q0 125 106 125h945q63 0 63 -45v-143q0 -74 -25.5 -102.5t-97.5 -28.5l-641 -5v-305l483 -2q37 0 37 -28v-248q0 -31 -37 -39h-483v-570q0 -63 -92 -63h-242q-16 0 -16 14z" />
<glyph unicode="G" horiz-adv-x="1540" d="M92 809q0 354 193 567q201 223 551 223q156 0 327 -45q150 -39 201 -75l27 -39v-158q0 -100 -68 -100q-23 0 -51 10q-261 96 -416 96h-6q-379 -2 -379 -479q0 -508 367 -508q102 0 174 14v451q0 8 9 21.5t17 13.5h240q10 1 19 1q94 0 94 -93v-564q0 -20 -27 -39 q-179 -120 -509 -120h-5q-406 0 -588 213q-170 199 -170 610z" />
<glyph unicode="H" horiz-adv-x="1562" d="M117 33v1513q0 33 28 33h232q109 0 108 -90v-541h617v598q0 33 26 33h234q111 0 111 -90v-1399q0 -90 -111 -90h-234q-27 0 -26 33v602h-617v-545q0 -90 -108 -90h-232q-29 0 -28 33z" />
<glyph unicode="I" horiz-adv-x="589" d="M117 88v1399q0 51 14 71.5t62 20.5h270q29 0 29 -37v-1509q0 -33 -33 -33h-258q-53 0 -68.5 16.5t-15.5 71.5z" />
<glyph unicode="J" horiz-adv-x="1257" d="M109 106v146q0 98 69 98q35 0 107.5 -30.5t103.5 -34.5q172 0 280.5 104.5t108.5 276.5v768q0 59 39 100t98 41h175q68 0 67 -70l2 -788q0 -395 -178 -541q-180 -190 -575 -190q-88 0 -138 12q-37 10 -121 51q-39 25 -38 57z" />
<glyph unicode="K" horiz-adv-x="1681" d="M20 14v1438q0 123 123 123h248q14 0 15 -14v-1438q0 -123 -123 -123h-248q-12 0 -15 14zM422 864q362 371 616 649q41 61 125 62l369 -2q13 0 13 -7q0 -8 -15 -24l-662 -694l527 -787q33 -29 32 -47q-2 -14 -32 -14h-340q-47 0 -78 47q-522 786 -555 817z" />
<glyph unicode="L" horiz-adv-x="1185" d="M68 1546q0 31 30 31h248q98 0 98 -88v-1090h529q100 0 100 -118v-246q0 -35 -33 -35h-893q-51 0 -67 25q-10 10 -10 53z" />
<glyph unicode="M" horiz-adv-x="1685" d="M115 12v1442q0 111 86 119v2h293l168 -248h-3l209 -291q248 356 367 539h274q102 0 103 -94v-1364q0 -117 -103 -117h-225q-16 0 -16 12l-4 983h2l-285 -415q-14 -12 -39 -13h-158q-20 0 -32 13l-293 421v-884q0 -117 -103 -117h-227q-14 0 -14 12z" />
<glyph unicode="N" horiz-adv-x="1622" d="M117 47v1415q0 117 88 117h274q23 0 37 -20l666 -938v841q0 117 82 117h243q25 0 25 -35v-1423q0 -78 -6 -90q-10 -31 -72 -31h-246q-33 0 -41 14l-696 992v-887q0 -70 -16 -90q-18 -29 -84 -29h-219q-27 0 -33 12q-2 4 -2 35z" />
<glyph unicode="O" horiz-adv-x="1785" d="M102 815q0 778 770 778q768 0 768 -778q0 -414 -174 -614q-186 -215 -594 -215q-410 0 -596 213q-174 201 -174 616zM500 817q0 -264 57 -364q78 -137 313 -138q233 0 310 138q55 100 55 364q0 238 -61 334q-78 123 -304 123q-223 0 -305 -123q-65 -97 -65 -327v-7z" />
<glyph unicode="P" horiz-adv-x="1703" d="M74 16v1438q0 121 121 121h757q621 0 621 -526q0 -524 -621 -525h-18q-10 2 -16 2h-451v-405q0 -121 -121 -121h-250q-23 0 -22 16zM467 856h399q129 0 183 21q90 35 104 135v4q2 6 2 10v10q2 13 2 27q0 8 -2 37h-2q-10 100 -102 135q-57 22 -175 22h-10h-399v-401z" />
<glyph unicode="Q" horiz-adv-x="1798" d="M104 815q0 778 770 778t771 -778q0 -393 -144 -588q156 -197 156 -213q0 -14 -33 -14h-367q-27 0 -53 31q-143 -45 -330 -45q-410 0 -595 213q-174 201 -175 616zM504 817q0 -266 55 -364q78 -137 313 -138q57 0 105 9q-252 322 -252 338q0 12 33 12h364q33 0 101 -86 q16 92 16 229q0 236 -63 334q-80 123 -304 123q-221 0 -303 -125q-65 -97 -65 -325v-7z" />
<glyph unicode="R" horiz-adv-x="1699" d="M100 16v1438q0 121 121 121h694q621 0 621 -502q0 -399 -397 -483l413 -543q17 -21 17 -35q0 -12 -33 -12h-362q-35 0 -72 49l-400 522h-208v-450q0 -121 -121 -121h-250q-23 0 -23 16zM494 870h305v2h30q135 0 183 17q88 31 104 131v6q0 6 2 8v88h-2q0 152 -287 152h-30 v2h-305v-406z" />
<glyph unicode="S" horiz-adv-x="1644" d="M61 1114q0 225 162 350q147 115 379 115h854q31 0 31 -33v-153q0 -139 -141 -140h-728q-153 0 -153 -107q0 -88 153 -140l496 -109q418 -92 418 -448q0 -236 -184 -353q-152 -96 -404 -96h-821q-29 0 -29 33v168q0 125 121 125h760q170 0 170 108q0 100 -170 139 l-479 109q-434 98 -435 432z" />
<glyph unicode="T" horiz-adv-x="1503" d="M43 1264v196q0 115 119 115h1280q14 0 14 -16v-197q0 -119 -119 -119h-387v-1122q0 -121 -119 -121h-249q-20 0 -21 16v1227h-502q-16 0 -16 21z" />
<glyph unicode="U" horiz-adv-x="1691" d="M109 819v729q0 33 30 33h262q55 0 74 -25q6 -10 6 -63v-696q0 -475 393 -475q397 0 398 499v727q0 33 31 33h260q57 0 73 -25q8 -12 9 -63v-674q0 -416 -175 -618q-186 -215 -596 -215q-424 0 -602 209q-163 194 -163 619v5z" />
<glyph unicode="V" horiz-adv-x="1679" d="M29 1538q-6 16 -6 26q0 17 18 17h301q59 0 84 -35q20 -41 23 -49l358 -979l350 932q10 27 31 70q41 61 119 61h227q61 0 61 -14q0 -8 -6 -33l-573 -1495q-14 -39 -51 -39h-314q-35 0 -45 41z" />
<glyph unicode="W" horiz-adv-x="2301" d="M55 1561q0 14 17 14h305q61 0 86 -33q12 -27 22 -51l160 -856l234 811l28 65q23 35 58 52q2 12 61 12h229q76 0 121 -62q14 -37 29 -67l237 -807l158 852q10 25 23 51q23 33 86 33h305q16 0 16 -16q0 -10 -6 -27l-375 -1491q-10 -41 -45 -41h-319q-29 0 -49 39l-295 942 l-291 -942q-23 -39 -53 -39h-316q-37 0 -47 41l-373 1491q-6 16 -6 29z" />
<glyph unicode="X" horiz-adv-x="1671" d="M92 53q0 23 10 43l500 695l-489 690q-12 25 -13 45q0 49 64 49h258q88 0 129 -62l270 -409l277 409q41 61 125 62h258q61 0 61 -53q0 -27 -12 -43l-488 -688l498 -697q10 -25 10 -45q0 -49 -63 -49h-260q-84 0 -125 61l-281 412l-280 -412q-41 -61 -127 -61h-260 q-37 0 -54 27q-8 10 -8 26z" />
<glyph unicode="Y" horiz-adv-x="1937" d="M74 1565q0 10 30 10h261q113 0 155 -62l461 -663l459 678q23 47 61 47h309q27 0 27 -23q0 -12 -10 -24l-660 -987v-418q0 -123 -125 -123h-262q-14 0 -16 14v545l-664 963q-27 39 -26 43z" />
<glyph unicode="Z" horiz-adv-x="1538" d="M57 1305v155q0 117 138 117h1124q10 1 19 1q42 0 42 -32q0 -6 -4 -18l-688 -1192q-6 -8 -2 -17q2 -8 19 -6l614 -2q129 0 127 -123l-2 -153q0 -35 -27 -35h-1300q-51 0 -51 25q0 8 4 14l731 1214q4 14 -6 19q-10 4 -23 0l-682 -2q-33 10 -33 35z" />
<glyph unicode="[" horiz-adv-x="1224" d="M63 387v324q0 72 53.5 124t125.5 52h739q72 0 124 -52.5t52 -123.5v-324q0 -74 -51 -126t-125 -52h-739q-74 0 -126.5 52t-52.5 126zM240 387l741 -2v330h-739q-2 0 -2 -4v-324z" />
<glyph unicode="\" horiz-adv-x="1171" d="M49 66v915q0 145 141 145h103q66 0 65 -65v-774q72 10 123 119l301 645q35 76 107 75h166q67 0 67 -63q0 -20 -12 -45l-385 -782q-117 -236 -379 -236h-231q-66 0 -66 66z" />
<glyph unicode="]" horiz-adv-x="1306" d="M100 385v326q0 74 52.5 125t126.5 51h741q76 0 127 -50.5t51 -125.5v-326q0 -74 -52 -125t-126 -51h-741q-72 0 -125.5 52t-53.5 124zM276 381q96 53 97 166q0 115 -94 168h739q-94 -53 -94 -168q0 -129 123 -180l-27 39v-25h-744z" />
<glyph unicode="^" />
<glyph unicode="_" horiz-adv-x="1202" d="M68 428v324q0 76 51 127t127 51h739q74 0 126 -52.5t52 -125.5v-324q0 -74 -52 -126t-126 -52h-739q-74 0 -126 52t-52 126zM244 428l741 -2l2 326q0 2 -2 4h-739q-2 0 -2 -4v-324zM467 930q172 0 217 155q29 98 64 500l16 8q31 -410 59 -508q45 -155 217 -155l-286 -131 zM471 250l281 131l290 -131q-174 0 -219 -156q-29 -96 -55 -495l-20 -11v9q-35 231 -52 409q-12 145 -37 182q-41 61 -188 62zM649 344q23 -2 41 -2q72 0 107 31l-35 -41l96 12l-6 82q-57 0 -88 143v4h-21q-33 -147 -88 -147zM649 838l105 14l104 -14l-6 -82q-57 0 -84 -150 l-25 4q-31 145 -88 146z" />
<glyph unicode="`" />
<glyph unicode="a" horiz-adv-x="1245" d="M106 346q0 246 318 326q18 4 248 47q127 23 162 39q-2 2 -5 2q0 70 -69 92q-39 12 -129 12q-145 0 -258 -12l-113 -12q-4 4 -10 -2q-51 0 -62 59q-2 6 -2 96q-2 115 185 140q31 4 272 4q496 0 496 -424v-568q0 -109 -111 -129q-159 -30 -386 -30h-15q-520 0 -521 360z M420 346q0 -92 223 -92q116 0 188 12v221l-333 -63q-78 -14 -78 -78z" />
<glyph unicode="b" horiz-adv-x="1230" d="M74 156v1290q0 143 139 143h104q66 0 66 -63v-387q72 6 203 6q571 0 571 -567q0 -295 -106 -426q-135 -166 -480 -166q-182 0 -387 41q-111 23 -110 129zM379 844q2 0 4 -2v-559q72 -10 174 -11q178 0 227 47q60 58 60 261q0 164 -57.5 223t-219.5 59q-141 0 -188 -18z " />
<glyph unicode="c" horiz-adv-x="1067" d="M74 580q0 557 549 557q188 0 225 -7q143 -25 143 -129v-94q0 -61 -61 -61q-45 0 -133 6t-133 6q-160 0 -217.5 -58.5t-57.5 -219.5q0 -176 47 -238q57 -74 228 -74q70 0 163 8l95 9h6q50 0 61 -62l4 -100v-7q0 -99 -108 -118q-76 -12 -260 -12q-551 0 -551 594z" />
<glyph unicode="d" horiz-adv-x="1310" d="M115 578q0 567 571 567q129 0 203 -6v387q0 63 65 63h105q139 0 139 -143v-1290q0 -106 -113 -129q-207 -41 -385 -41q-313 0 -449 139t-136 453zM428 580q0 -205 57 -261q49 -47 230 -47q102 0 174 11v559l4 2q-47 18 -188 18q-164 0 -220.5 -59.5t-56.5 -222.5z" />
<glyph unicode="e" horiz-adv-x="1247" d="M86 571q0 293 132 429.5t423 136.5q518 -1 518 -349q0 -158 -88 -235q-61 -53 -127 -78q-45 -16 -160 -37l-358 -63q27 -72 106 -94q45 -12 152 -13q98 0 207 8l135 11h6q48 0 60 -64l4 -98v-7q0 -100 -113 -118q-92 -14 -332 -14q-293 0 -429 145t-136 440zM401 629 l279 51q100 18 125 31q41 20 41 73q0 86 -189 86q-145 0 -198 -49t-58 -192z" />
<glyph unicode="f" horiz-adv-x="794" d="M66 70v1122q0 383 401 383q152 0 170 -4q94 -21 94 -113q0 -166 -69 -166q-12 0 -37 2t-37 2h-92q-84 0 -101 -8q-31 -14 -30 -86v-80h258q70 0 69 -69v-127q0 -63 -69 -64h-267q4 -4 9 -4v-788q0 -70 -64 -70h-166q-70 0 -69 70z" />
<glyph unicode="g" horiz-adv-x="1286" d="M109 559q0 309 134 443.5t443 134.5q190 0 383 -37q109 -20 109 -127v-836q0 -299 -117 -426q-123 -129 -420 -129q-211 0 -344 23q-109 17 -109 133v8l2 70q2 63 60 63v-10q2 6 6 10h4l115 -12q115 -12 258 -12q156 0 201 43q31 31 36 122q-72 -6 -194 -6 q-287 0 -424 127q-143 133 -143 418zM422 555q0 -156 55 -209t213 -53q119 0 182 12v545q-82 8 -167 8q-176 0 -226 -47q-57 -55 -57 -256z" />
<glyph unicode="h" horiz-adv-x="1191" d="M76 66v1370q0 145 141 145h102q66 0 66 -65v-396q123 18 262 19q471 0 471 -408v-665q0 -66 -65 -66h-179q-66 0 -65 66v628q0 102 -45 137q-37 27 -143 27q-154 0 -236 -18v-774q0 -66 -66 -66h-178q-66 0 -65 66z" />
<glyph unicode="i" horiz-adv-x="544" d="M96 1417q0 180 176 180q174 0 174 -180q0 -174 -174 -174q-176 0 -176 174zM117 66v915q0 145 141 145h102q66 0 66 -65v-995q0 -66 -66 -66h-178q-66 0 -65 66z" />
<glyph unicode="j" horiz-adv-x="935" d="M94 -287q2 16 8 92q6 66 60 66q37 0 110.5 -4t110.5 -4q133 0 133 106v725h307v-692q0 -416 -448 -416q-78 0 -187 15q-94 12 -94 112zM498 1413q0 178 174 178q170 0 170 -178q0 -172 -170 -172q-174 0 -174 172zM516 612v369q0 143 141 143h103q63 0 63 -61v-451h-307z " />
<glyph unicode="k" horiz-adv-x="1163" d="M63 66v1370q0 145 142 145h102q66 0 66 -65v-1450q0 -66 -66 -66h-178q-66 0 -66 66zM328 616q0 57 53 111l360 363q36 36 78 36h2h211q66 0 66 -63q0 -31 -25 -53l-409 -392l415 -503q23 -27 23 -52q0 -63 -66 -63h-215q-51 0 -84 41l-360 463q-49 63 -49 112z" />
<glyph unicode="l" horiz-adv-x="538" d="M115 63v1362q0 143 143 144h100q66 0 66 -66v-1440q0 -63 -66 -63h-174q-70 0 -69 63z" />
<glyph unicode="m" horiz-adv-x="1736" d="M106 66v907q0 109 113 129q199 37 383 37q152 0 258 -45q174 45 301 45q467 0 467 -408v-665q0 -66 -65 -66h-179q-66 0 -65 66v636q0 88 -32 122t-120 34q-72 0 -141 -16v-776q0 -66 -65 -66h-179q-66 0 -65 66v657q0 88 -37 115q-31 20 -123 20q-80 0 -141 -14v-778 q0 -66 -66 -66h-178q-66 0 -66 66z" />
<glyph unicode="n" horiz-adv-x="1257" d="M109 66v907q0 106 110 129q184 37 440 37q492 0 492 -408v-665q0 -66 -66 -66h-178q-66 0 -65 66v628q0 104 -47 137q-39 27 -148 27q-162 0 -229 -14v-778q0 -66 -66 -66h-178q-66 0 -65 66z" />
<glyph unicode="o" horiz-adv-x="1314" d="M80 578q0 559 577 559q578 0 578 -559q0 -301 -139.5 -446.5t-438.5 -145.5t-438 145t-139 447zM395 578q0 -170 45 -234q53 -76 217 -76q166 0 220 74q43 60 43 236q0 162 -50 219q-55 61 -213 61q-154 0 -208 -61.5t-54 -218.5z" />
<glyph unicode="p" horiz-adv-x="1269" d="M92 -348v1323q0 106 113 129q186 37 387 37q311 0 448.5 -138.5t137.5 -451.5q0 -569 -576 -569q-119 0 -199 8v-258q0 -145 -141 -146h-104q-66 0 -66 66zM403 276q61 -12 177 -12q162 0 222 60.5t60 222.5q0 186 -49 246q-54 67 -233 67h-5q-123 0 -172 -18v-566z" />
<glyph unicode="q" horiz-adv-x="1302" d="M109 551q0 313 137 451.5t448 138.5q201 0 387 -37q113 -23 113 -129v-1323q0 -66 -66 -66h-104q-141 0 -141 146v258q-80 -8 -199 -8q-575 0 -575 569zM424 547q0 -162 60.5 -222.5t222.5 -60.5q115 0 176 12v566q-49 18 -172 18q-180 0 -238 -67q-49 -59 -49 -246z" />
<glyph unicode="r" horiz-adv-x="888" d="M78 66v655q0 418 448 418q131 0 191 -11q94 -16 94 -131v-39l-2 -36q-4 -66 -64 -66h-4q-129 4 -223 4q-131 0 -131 -104v-690q0 -66 -65 -66h-179q-66 0 -65 66z" />
<glyph unicode="s" horiz-adv-x="1175" d="M94 784q0 352 490 353q231 0 266 -7q160 -28 160 -153v-6q0 -12 -2 -71.5t-62 -59.5h-8l-20 4l-78 10q-94 12 -240 12q-197 0 -197 -63q0 -45 177 -84q236 -53 325 -101q176 -94 176 -266q0 -366 -490 -366h-3q-229 0 -363 22q-109 18 -108 148v37q0 -12 2 38q2 61 61 62 q8 -2 33 -4l90 -13q121 -16 262 -16q203 0 203 74q0 39 -168 86q-111 31 -221 59q-139 43 -199 96q-86 76 -86 209z" />
<glyph unicode="t" horiz-adv-x="827" d="M78 369v905q0 145 141 145h103q66 0 65 -65v-236h254q68 0 68 -67v-131q0 -68 -68 -68h-254v-485q0 -72 29 -91q20 -14 100 -14q23 0 65 5t64 5q100 0 100 -65q0 -12 2.5 -39t2.5 -39q0 -117 -97 -133q-61 -10 -166 -10q-410 0 -409 383z" />
<glyph unicode="u" horiz-adv-x="1271" d="M115 393v586q0 145 141 145h102q66 0 66 -65v-629q0 -104 47 -137q39 -27 147 -27q162 0 230 15v698q0 145 141 145h103q66 0 65 -65v-907q0 -106 -110 -129q-184 -37 -441 -37q-492 0 -491 407z" />
<glyph unicode="v" horiz-adv-x="1298" d="M78 1067q0 61 67 61h156q84 0 127 -63l225 -688l236 688q45 63 112 63h150q68 0 68 -61q0 -27 -11 -45l-377 -963q-6 -59 -81 -59h-218q-59 0 -90 49l-354 973q-10 18 -10 45z" />
<glyph unicode="w" horiz-adv-x="1810" d="M74 1063q0 63 65 63h150q94 0 112 -75l152 -633l199 645q20 63 82 63h151q72 0 90 -63l189 -647l168 635q20 75 108 75h2h127q66 0 66 -63q0 -20 -6 -41l-279 -965q-16 -57 -84 -57h-205q-61 0 -82 63l-174 558l-178 -564q-18 -57 -84 -57h-209q-63 0 -82 66l-270 958 q-8 29 -8 39z" />
<glyph unicode="x" horiz-adv-x="1302" d="M94 55q0 20 23 58l344 462l-338 431q-29 18 -29 55q0 61 66 61h207q55 0 86 -41l202 -266l193 266q29 41 78 41h194q72 0 72 -61q0 -33 -25 -53l-323 -418l342 -477q20 -38 20 -58q0 -55 -65 -55h-215q-57 0 -80 45l-201 293l-205 -295q-31 -43 -90 -43h-190 q-66 0 -66 55z" />
<glyph unicode="y" horiz-adv-x="1318" d="M66 1057q0 63 65 63h180q63 0 86 -49l273 -590l264 590q23 49 82 49h172q65 0 65 -63q0 -14 -14 -45l-643 -1377q-23 -49 -88 -49h-168q-66 0 -66 64q0 18 15 47l221 440l-430 875q-14 29 -14 45z" />
<glyph unicode="z" horiz-adv-x="1245" d="M98 76v123q0 39 35 61l572 602h-537q-70 0 -70 72v127q0 65 68 65h2h913q66 0 66 -65v-154l-627 -643h561q66 0 66 -65v-123q0 -76 -66 -76h-913q-70 0 -70 76z" />
<glyph unicode="{" horiz-adv-x="3311" d="M68 768q0 166 120 260q109 86 279 86h561q61 0 62 -61v-107q0 -133 -129 -133h-480q-66 0 -65 -27q0 -35 73 -51l330 -71q303 -66 303 -336q0 -342 -428 -342h-536q-61 0 -62 59v117q0 119 119 119h500q74 0 73 30q0 39 -81 58l-320 71q-319 72 -319 328zM1153 41v944 q0 129 123 129h166q49 0 49 -51v-948q0 -129 -123 -129h-164q-51 0 -51 55zM1401 600q291 297 436 461q47 53 113 53h280q90 0 131 -57l269 -379q20 0 90 104l200 299q23 51 76 52h199q72 -1 72 -52q0 -23 -27 -47l-436 -657v-262q0 -129 -127 -129h-174q-47 0 -47 55v342 l-355 512l-293 -305l340 -510q16 -18 17 -45q-14 -49 -60 -49h-223q-53 0 -88 53q-350 524 -393 561z" />
<glyph unicode="|" horiz-adv-x="421" d="M92 -307v1661h240v-1661h-240z" />
<glyph unicode="}" horiz-adv-x="3229" d="M90 768q0 176 127 279q117 94 297 94h528q104 0 105 -109v-98q0 -168 -168 -168h-346q291 -63 368 -104q185 -97 185 -314q0 -182 -142 -278q-123 -84 -313 -84h-518q-104 0 -104 108v99q0 170 167 169h381q-246 51 -251 56q-135 29 -222 110q-94 88 -94 240zM219 768 q0 -176 234 -227l303 -68q133 -29 133 -131q0 -109 -141 -109h-472q-41 0 -40 -40v-78h495q326 0 326 233q0 195 -234 244l-305 65q-131 29 -131 129q0 109 139 109h453q39 0 39 39v78h-504q-127 0 -205 -58q-90 -66 -90 -186zM1118 84v893q0 162 162 162h156q100 0 100 -99 v-213q125 143 176 193q125 121 205 121h262q121 0 174 -78l207 -307l217 321q43 63 113 64h190q55 0 86 -47q17 -25 17 -54t-13 -53l-4 -6l-399 -594v-237q0 -164 -164 -164h-160q-92 0 -104 118l4 17q0 -4 -2 -8v278q-92 131 -287 420l-207 -223l291 -428q4 -4 8 -13 q23 -35 23 -65q0 -96 -107 -96h-213q-66 0 -114 69l-199 287v-192q0 -162 -162 -162h-155q-100 0 -101 96zM1247 115v862q0 33 33 33h156q0 31 -29 30v-890q0 -35 -33 -35h-127zM1513 604l336 -489h168l-336 487l387 416l402 -590v-313h133q35 0 35 35v274l416 614 q26 1 26 -26h-190q-2 0 -6 -6l-326 -480l-313 467q-12 18 -66 19h-262q-27 0 -45 -21z" />
<glyph unicode="~" horiz-adv-x="3287" d="M18 758q0 170 121 266q111 88 285 88h530q84 0 84 -86v-98q0 -150 -147 -150h-459q-29 0 -31 -2q0 -14 48 -24l309 -64q319 -65 319 -350q0 -176 -137 -264q-117 -76 -301 -76h-522q-80 0 -80 84v100q0 145 145 146h475q8 0 27 -4q10 0 10 6q0 12 -49 22l-307 68 q-319 70 -320 338zM1087 76v1347q0 145 148 146h160q84 0 84 -82v-1344q0 -145 -150 -145h-155q-86 0 -87 78zM1403 602l422 453q53 57 129 57h227q92 0 137 -70l332 -524l238 524q31 70 106 70h193q84 0 84 -78q-6 -10 -6 -16t-7 -35l-618 -1325q-33 -72 -107 -72h-188 q-84 0 -84 82q0 27 20 56l195 415l-430 635l-178 -196l295 -439q25 -37 24 -63q0 -78 -94 -78h-209q-57 0 -100 61z" />
<glyph unicode="&#xa0;" />
<glyph unicode="&#xa1;" />
<glyph unicode="&#xa2;" />
<glyph unicode="&#xa3;" />
<glyph unicode="&#xa4;" />
<glyph unicode="&#xa5;" />
<glyph unicode="&#xa7;" />
<glyph unicode="&#xa8;" />
<glyph unicode="&#xa9;" />
<glyph unicode="&#xaa;" />
<glyph unicode="&#xab;" />
<glyph unicode="&#xac;" />
<glyph unicode="&#xae;" />
<glyph unicode="&#xaf;" />
<glyph unicode="&#xb0;" />
<glyph unicode="&#xb1;" />
<glyph unicode="&#xb4;" />
<glyph unicode="&#xb5;" />
<glyph unicode="&#xb6;" />
<glyph unicode="&#xb7;" />
<glyph unicode="&#xb8;" />
<glyph unicode="&#xba;" />
<glyph unicode="&#xbb;" />
<glyph unicode="&#xbd;" />
<glyph unicode="&#xbf;" />
<glyph unicode="&#xc0;" />
<glyph unicode="&#xc1;" />
<glyph unicode="&#xc2;" />
<glyph unicode="&#xc3;" />
<glyph unicode="&#xc4;" />
<glyph unicode="&#xc5;" />
<glyph unicode="&#xc6;" />
<glyph unicode="&#xc7;" />
<glyph unicode="&#xc8;" />
<glyph unicode="&#xc9;" />
<glyph unicode="&#xca;" />
<glyph unicode="&#xcb;" />
<glyph unicode="&#xcc;" />
<glyph unicode="&#xcd;" />
<glyph unicode="&#xce;" />
<glyph unicode="&#xcf;" />
<glyph unicode="&#xd1;" />
<glyph unicode="&#xd2;" />
<glyph unicode="&#xd3;" />
<glyph unicode="&#xd4;" />
<glyph unicode="&#xd5;" />
<glyph unicode="&#xd6;" />
<glyph unicode="&#xd8;" />
<glyph unicode="&#xd9;" />
<glyph unicode="&#xda;" />
<glyph unicode="&#xdb;" />
<glyph unicode="&#xdc;" />
<glyph unicode="&#xdf;" />
<glyph unicode="&#xe0;" />
<glyph unicode="&#xe1;" />
<glyph unicode="&#xe2;" />
<glyph unicode="&#xe3;" />
<glyph unicode="&#xe4;" />
<glyph unicode="&#xe5;" />
<glyph unicode="&#xe6;" />
<glyph unicode="&#xe7;" />
<glyph unicode="&#xe8;" />
<glyph unicode="&#xe9;" />
<glyph unicode="&#xea;" />
<glyph unicode="&#xeb;" />
<glyph unicode="&#xec;" />
<glyph unicode="&#xed;" />
<glyph unicode="&#xee;" />
<glyph unicode="&#xef;" />
<glyph unicode="&#xf1;" />
<glyph unicode="&#xf2;" />
<glyph unicode="&#xf3;" />
<glyph unicode="&#xf4;" />
<glyph unicode="&#xf5;" />
<glyph unicode="&#xf6;" />
<glyph unicode="&#xf7;" />
<glyph unicode="&#xf8;" />
<glyph unicode="&#xf9;" />
<glyph unicode="&#xfa;" />
<glyph unicode="&#xfb;" />
<glyph unicode="&#xfc;" />
<glyph unicode="&#xff;" />
<glyph unicode="&#x152;" />
<glyph unicode="&#x153;" />
<glyph unicode="&#x178;" />
<glyph unicode="&#x2c6;" />
<glyph unicode="&#x2dc;" />
<glyph unicode="&#x2000;" horiz-adv-x="801" />
<glyph unicode="&#x2001;" horiz-adv-x="1602" />
<glyph unicode="&#x2002;" horiz-adv-x="801" />
<glyph unicode="&#x2003;" horiz-adv-x="1602" />
<glyph unicode="&#x2004;" horiz-adv-x="534" />
<glyph unicode="&#x2005;" horiz-adv-x="400" />
<glyph unicode="&#x2006;" horiz-adv-x="267" />
<glyph unicode="&#x2007;" horiz-adv-x="267" />
<glyph unicode="&#x2008;" horiz-adv-x="200" />
<glyph unicode="&#x2009;" horiz-adv-x="320" />
<glyph unicode="&#x200a;" horiz-adv-x="89" />
<glyph unicode="&#x2013;" />
<glyph unicode="&#x2014;" />
<glyph unicode="&#x2018;" horiz-adv-x="632" />
<glyph unicode="&#x2019;" horiz-adv-x="632" />
<glyph unicode="&#x201a;" />
<glyph unicode="&#x201c;" horiz-adv-x="632" />
<glyph unicode="&#x201d;" horiz-adv-x="632" />
<glyph unicode="&#x201e;" />
<glyph unicode="&#x2022;" />
<glyph unicode="&#x2026;" />
<glyph unicode="&#x202f;" horiz-adv-x="320" />
<glyph unicode="&#x2039;" />
<glyph unicode="&#x203a;" />
<glyph unicode="&#x205f;" horiz-adv-x="400" />
<glyph unicode="&#x2122;" />
<glyph unicode="&#x25fc;" horiz-adv-x="1126" d="M0 0v1126h1126v-1126h-1126z" />
</font>
</defs>
</svg>
