<svg width="94" height="34" viewBox="0 0 94 34" xmlns="http://www.w3.org/2000/svg"><title>789D4221-608B-47D4-B310-57369F1E30B5</title><g fill="#FFF" fill-rule="evenodd"><path d="M65.393 11.109L72.891.926H84L68.263 20.468l-2.342 12.2h-9.508l2.667-13.644-4.879-8.841-6.397 7.406 8.6 15.154h-11.45l-6.712-12.655-2.287 12.618h-9.637l1.37-7.267c-2.61 6.24-7.489 8.331-14.135 8.331-5.601 0-10.748-1.786-13.553-5.008l5.277-6.48a13.284 13.284 0 0 0 9.507 3.564c2.601 0 4.166-1.027 4.23-2.397.065-2.333-3.777-2.676-7.294-3.703-3.972-1.167-8.212-3.981-7.1-9.878C5.47 5.277 9.312 0 19.106 0c5.47 0 9.507 1.305 12.83 3.768L32.456.99h9.646l-2.777 13.784L50.58.925h9.572l5.24 10.184zM27.605 10.7c-4.1-2.397-6.841-2.943-9.776-2.943-1.629 0-3.453.407-3.702 2.055-.195 1.435 1.11 1.786 3.841 2.397 5.018 1.093 10.1 2.537 10.748 7.952l2.777-14.191-3.842 4.73h-.046zM90.514 1.005a2.483 2.483 0 0 1 2.16 1.006c.514.72.648 1.645.36 2.482a4.568 4.568 0 0 1-1.65 2.483 4.27 4.27 0 0 1-2.694 1.018 2.483 2.483 0 0 1-2.173-1.006 2.743 2.743 0 0 1-.372-2.482 4.556 4.556 0 0 1 1.65-2.483 4.295 4.295 0 0 1 2.72-1.018zm-.124.472a3.625 3.625 0 0 0-2.296.869 3.947 3.947 0 0 0-1.415 2.11 2.396 2.396 0 0 0 .298 2.11c.424.583 1.116.91 1.837.87a3.6 3.6 0 0 0 2.296-.87 3.972 3.972 0 0 0 1.403-2.11 2.396 2.396 0 0 0-.298-2.098 2.11 2.11 0 0 0-1.837-.881h.012zm-2.93 4.878l1.019-3.86h1.973c.87 0 1.2.414.993 1.241-.057.49-.398.898-.869 1.043.34.09.456.343.348.757l-.223.857h-.807l.186-.708c.1-.364-.042-.546-.422-.546h-1.03l-.336 1.241-.831-.025zm1.329-1.948h1.03a.757.757 0 0 0 .807-.621c.108-.397-.037-.596-.434-.596h-1.08l-.323 1.217z"/></g></svg>